<svg width="32" height="32" viewBox="0 0 32 32" fill="none" xmlns="http://www.w3.org/2000/svg">
<rect width="32" height="32" rx="4" fill="white"/>
<g style="mix-blend-mode:multiply">
<mask id="mask0_156_15313" style="mask-type:alpha" maskUnits="userSpaceOnUse" x="0" y="0" width="32" height="32">
<rect width="32" height="32" rx="4" fill="white"/>
</mask>
<g mask="url(#mask0_156_15313)">
<rect x="-6.53833" y="-0.719971" width="47.4392" height="36.4852" rx="4" fill="white"/>
<g filter="url(#filter0_f_156_15313)">
<ellipse cx="1.55239" cy="34.2937" rx="19.8993" ry="19.8993" fill="url(#paint0_radial_156_15313)"/>
<ellipse cx="1.55239" cy="34.2937" rx="19.8993" ry="19.8993" fill="url(#paint1_radial_156_15313)"/>
</g>
<g filter="url(#filter1_f_156_15313)">
<ellipse cx="31.65" cy="-0.543427" rx="19.8993" ry="19.8993" fill="url(#paint2_radial_156_15313)"/>
<ellipse cx="31.65" cy="-0.543427" rx="19.8993" ry="19.8993" fill="url(#paint3_radial_156_15313)"/>
</g>
</g>
</g>
<g style="mix-blend-mode:color-burn" opacity="0.4">
<mask id="mask1_156_15313" style="mask-type:alpha" maskUnits="userSpaceOnUse" x="0" y="0" width="32" height="32">
<rect width="32" height="32" rx="5.33333" fill="white"/>
</mask>
<g mask="url(#mask1_156_15313)">
<g filter="url(#filter2_f_156_15313)">
<ellipse cx="1.55239" cy="34.2937" rx="19.8993" ry="19.8993" fill="url(#paint4_radial_156_15313)"/>
<ellipse cx="1.55239" cy="34.2937" rx="19.8993" ry="19.8993" fill="url(#paint5_radial_156_15313)"/>
</g>
<g filter="url(#filter3_f_156_15313)">
<ellipse cx="31.65" cy="-0.543427" rx="19.8993" ry="19.8993" fill="url(#paint6_radial_156_15313)"/>
<ellipse cx="31.65" cy="-0.543427" rx="19.8993" ry="19.8993" fill="url(#paint7_radial_156_15313)"/>
</g>
</g>
</g>
<g style="mix-blend-mode:color-dodge">
<path d="M7.33325 10.6938V7.22717H12.9666V10.6938H19.0333V7.22717H24.6666V10.6938H22.0666V14.1605H19.0333V17.6272H21.6333V21.0938H24.6666V24.5605H19.0333V21.0938H12.9666V24.5605H7.33325V21.0938H10.3666V17.6272H12.9666V14.1605H10.3666H9.93325V10.6938H7.33325Z" fill="#111328" fill-opacity="0.8"/>
</g>
<g style="mix-blend-mode:color-burn">
<path d="M7.33325 10.6938V7.22717H12.9666V10.6938H19.0333V7.22717H24.6666V10.6938H22.0666V14.1605H19.0333V17.6272H21.6333V21.0938H24.6666V24.5605H19.0333V21.0938H12.9666V24.5605H7.33325V21.0938H10.3666V17.6272H12.9666V14.1605H10.3666H9.93325V10.6938H7.33325Z" fill="#111328" fill-opacity="0.8"/>
</g>
<g style="mix-blend-mode:multiply">
<path d="M7.33325 10.6938V7.22717H12.9666V10.6938H19.0333V7.22717H24.6666V10.6938H22.0666V14.1605H19.0333V17.6272H21.6333V21.0938H24.6666V24.5605H19.0333V21.0938H12.9666V24.5605H7.33325V21.0938H10.3666V17.6272H12.9666V14.1605H10.3666H9.93325V10.6938H7.33325Z" fill="#111328" fill-opacity="0.95"/>
</g>
<defs>
<filter id="filter0_f_156_15313" x="-23.9984" y="8.74293" width="51.1015" height="51.1016" filterUnits="userSpaceOnUse" color-interpolation-filters="sRGB">
<feFlood flood-opacity="0" result="BackgroundImageFix"/>
<feBlend mode="normal" in="SourceGraphic" in2="BackgroundImageFix" result="shape"/>
<feGaussianBlur stdDeviation="2.82574" result="effect1_foregroundBlur_156_15313"/>
</filter>
<filter id="filter1_f_156_15313" x="6.09925" y="-26.0942" width="51.1015" height="51.1016" filterUnits="userSpaceOnUse" color-interpolation-filters="sRGB">
<feFlood flood-opacity="0" result="BackgroundImageFix"/>
<feBlend mode="normal" in="SourceGraphic" in2="BackgroundImageFix" result="shape"/>
<feGaussianBlur stdDeviation="2.82574" result="effect1_foregroundBlur_156_15313"/>
</filter>
<filter id="filter2_f_156_15313" x="-59.9969" y="-27.2556" width="123.099" height="123.099" filterUnits="userSpaceOnUse" color-interpolation-filters="sRGB">
<feFlood flood-opacity="0" result="BackgroundImageFix"/>
<feBlend mode="normal" in="SourceGraphic" in2="BackgroundImageFix" result="shape"/>
<feGaussianBlur stdDeviation="20.825" result="effect1_foregroundBlur_156_15313"/>
</filter>
<filter id="filter3_f_156_15313" x="-29.8993" y="-62.0928" width="123.099" height="123.099" filterUnits="userSpaceOnUse" color-interpolation-filters="sRGB">
<feFlood flood-opacity="0" result="BackgroundImageFix"/>
<feBlend mode="normal" in="SourceGraphic" in2="BackgroundImageFix" result="shape"/>
<feGaussianBlur stdDeviation="20.825" result="effect1_foregroundBlur_156_15313"/>
</filter>
<radialGradient id="paint0_radial_156_15313" cx="0" cy="0" r="1" gradientUnits="userSpaceOnUse" gradientTransform="translate(1.55239 34.2937) rotate(90) scale(19.8993 19.8993)">
<stop stop-color="#D9D9D9"/>
<stop offset="1" stop-color="#D9D9D9" stop-opacity="0"/>
</radialGradient>
<radialGradient id="paint1_radial_156_15313" cx="0" cy="0" r="1" gradientUnits="userSpaceOnUse" gradientTransform="translate(1.55238 34.2937) rotate(135) scale(19.7391)">
<stop stop-color="#A8C1F9"/>
<stop offset="0.0001" stop-color="#B4A0FF"/>
<stop offset="0.332356" stop-color="#FFF3C0"/>
<stop offset="0.671102" stop-color="#AFF6CE"/>
<stop offset="1" stop-color="#AAB6FE"/>
</radialGradient>
<radialGradient id="paint2_radial_156_15313" cx="0" cy="0" r="1" gradientUnits="userSpaceOnUse" gradientTransform="translate(31.65 -0.543427) rotate(90) scale(19.8993 19.8993)">
<stop stop-color="#D9D9D9"/>
<stop offset="1" stop-color="#D9D9D9" stop-opacity="0"/>
</radialGradient>
<radialGradient id="paint3_radial_156_15313" cx="0" cy="0" r="1" gradientUnits="userSpaceOnUse" gradientTransform="translate(31.65 -0.543426) rotate(135) scale(19.7391)">
<stop stop-color="#A8C1F9"/>
<stop offset="0.0001" stop-color="#ADD2FC"/>
<stop offset="0.332356" stop-color="#FFF3C0"/>
<stop offset="0.671102" stop-color="#E6AAFF"/>
<stop offset="1" stop-color="#8AB2FF"/>
</radialGradient>
<radialGradient id="paint4_radial_156_15313" cx="0" cy="0" r="1" gradientUnits="userSpaceOnUse" gradientTransform="translate(1.55239 34.2937) rotate(90) scale(19.8993 19.8993)">
<stop stop-color="#D9D9D9"/>
<stop offset="1" stop-color="#D9D9D9" stop-opacity="0"/>
</radialGradient>
<radialGradient id="paint5_radial_156_15313" cx="0" cy="0" r="1" gradientUnits="userSpaceOnUse" gradientTransform="translate(1.55238 34.2937) rotate(135) scale(19.7391)">
<stop stop-color="#A8C1F9"/>
<stop offset="0.0001" stop-color="#B4A0FF"/>
<stop offset="0.332356" stop-color="#FFF3C0"/>
<stop offset="0.671102" stop-color="#AFF6CE"/>
<stop offset="1" stop-color="#AAB6FE"/>
</radialGradient>
<radialGradient id="paint6_radial_156_15313" cx="0" cy="0" r="1" gradientUnits="userSpaceOnUse" gradientTransform="translate(31.65 -0.543427) rotate(90) scale(19.8993 19.8993)">
<stop stop-color="#D9D9D9"/>
<stop offset="1" stop-color="#D9D9D9" stop-opacity="0"/>
</radialGradient>
<radialGradient id="paint7_radial_156_15313" cx="0" cy="0" r="1" gradientUnits="userSpaceOnUse" gradientTransform="translate(31.65 -0.543426) rotate(135) scale(19.7391)">
<stop stop-color="#A8C1F9"/>
<stop offset="0.0001" stop-color="#ADD2FC"/>
<stop offset="0.332356" stop-color="#FFF3C0"/>
<stop offset="0.671102" stop-color="#E6AAFF"/>
<stop offset="1" stop-color="#8AB2FF"/>
</radialGradient>
</defs>
</svg>
